<svg width="127" height="48" viewBox="0 0 127 48" fill="none" xmlns="http://www.w3.org/2000/svg">
<path d="M56.6836 42.9512V37.5264H61.0312V38.1668H57.4794V39.8269H60.8038V40.4642H57.4794V42.3108H61.169V42.9512H56.6836Z" fill="#90B5EE"/>
<path d="M65.0003 42.9512V42.4569C64.8741 42.6436 64.6947 42.7963 64.4808 42.8991C64.2669 43.0019 64.0263 43.0511 63.7842 43.0413C63.4422 43.0423 63.1076 42.9514 62.823 42.7802C62.5218 42.604 62.2827 42.3538 62.134 42.059C61.9681 41.7227 61.8869 41.3575 61.8963 40.9895C61.8892 40.6246 61.963 40.2621 62.1134 39.9232C62.2407 39.6228 62.4682 39.3653 62.7645 39.1865C63.0537 39.0175 63.3915 38.9289 63.7359 38.9315C63.9696 38.9288 64.2006 38.9765 64.4097 39.0706C64.6188 39.1646 64.8 39.3024 64.9383 39.4725V37.5264H65.672V42.9512H65.0003ZM62.668 40.9895C62.6321 41.3906 62.7541 41.7902 63.0125 42.118C63.1109 42.2335 63.2371 42.3274 63.3815 42.3925C63.5259 42.4577 63.6848 42.4924 63.8462 42.4942C64.004 42.4951 64.16 42.4633 64.3021 42.4013C64.4443 42.3393 64.5688 42.2488 64.6661 42.1367C64.9207 41.8213 65.0428 41.4346 65.0106 41.0455C65.0467 40.627 64.9254 40.2096 64.6661 39.8611C64.5663 39.7431 64.4374 39.6478 64.2898 39.5825C64.1421 39.5172 63.9796 39.4838 63.8152 39.4849C63.6565 39.4839 63.4996 39.5159 63.3569 39.5785C63.2141 39.641 63.0892 39.7324 62.9918 39.8455C62.7454 40.1835 62.6314 40.5863 62.668 40.9895Z" fill="#90B5EE"/>
<path d="M69.7058 42.951V42.3728C69.5588 42.5814 69.3549 42.7525 69.1136 42.8695C68.8723 42.9866 68.6017 43.0457 68.3278 43.0412C68.079 43.0419 67.8328 42.9964 67.6044 42.9075C67.4104 42.8364 67.2397 42.7219 67.1083 42.5749C66.9949 42.4255 66.9185 42.2559 66.8843 42.0775C66.8479 41.8719 66.8329 41.6638 66.8396 41.4557V39.0215H67.5768V41.1977C67.5677 41.4326 67.5826 41.6678 67.6216 41.9003C67.6605 42.0672 67.7659 42.2154 67.9178 42.3168C68.0818 42.4181 68.2774 42.4693 68.4759 42.463C68.6952 42.4637 68.9106 42.4111 69.0995 42.3106C69.2838 42.217 69.4282 42.0703 69.5094 41.894C69.6013 41.6458 69.6422 41.3845 69.63 41.1231V39.0184H70.3707V42.9479L69.7058 42.951Z" fill="#90B5EE"/>
<path d="M74.3705 41.5116L75.0974 41.5956C75.0428 42.0054 74.8249 42.3833 74.4842 42.6588C74.1501 42.9168 73.7215 43.0531 73.2819 43.0411C73.0144 43.0505 72.7476 43.0086 72.4994 42.918C72.2512 42.8274 72.0271 42.6903 71.8419 42.5158C71.4539 42.092 71.2604 41.5503 71.3011 41.0018C71.2926 40.6191 71.3723 40.2391 71.5353 39.8857C71.6758 39.5828 71.926 39.3319 72.245 39.1738C72.5606 39.014 72.9166 38.9305 73.2785 38.9313C73.6937 38.9102 74.1042 39.0201 74.4394 39.2422C74.7565 39.4756 74.9634 39.809 75.0182 40.1749L74.3016 40.2743C74.2551 40.0457 74.1269 39.8371 73.9365 39.6806C73.7621 39.546 73.5389 39.474 73.3095 39.4785C73.1379 39.4736 72.9672 39.5038 72.8104 39.5668C72.6535 39.6298 72.5144 39.7239 72.4035 39.8422C72.1405 40.1728 72.0182 40.5778 72.059 40.9831C72.0229 41.391 72.1447 41.7975 72.4035 42.1334C72.5097 42.25 72.644 42.3432 72.7963 42.4057C72.9486 42.4682 73.1147 42.4984 73.2819 42.494C73.5499 42.5013 73.8106 42.4144 74.0088 42.2515C74.2211 42.0504 74.349 41.7887 74.3705 41.5116Z" fill="#90B5EE"/>
<path d="M78.5704 42.4663C78.337 42.6549 78.0688 42.8053 77.7781 42.9108C77.5184 42.9994 77.2427 43.0436 76.965 43.0414C76.5674 43.0657 76.1742 42.9548 75.8626 42.7305C75.7288 42.6172 75.6247 42.4784 75.558 42.3241C75.4913 42.1698 75.4637 42.0041 75.4773 41.8389C75.4908 41.6738 75.5451 41.5135 75.6363 41.3697C75.7274 41.226 75.853 41.1025 76.0039 41.0082C76.1666 40.9104 76.3457 40.8369 76.5344 40.7906C76.7509 40.7435 76.9708 40.7102 77.1924 40.6911C77.6382 40.6526 78.0789 40.5756 78.5084 40.4611C78.5084 40.3678 78.5084 40.3119 78.5084 40.287C78.5205 40.1834 78.5084 40.0787 78.4728 39.9796C78.4372 39.8805 78.3789 39.7893 78.3017 39.7119C78.0595 39.5477 77.7597 39.4682 77.4577 39.488C77.1888 39.4691 76.9201 39.5267 76.6894 39.6528C76.4971 39.8028 76.3681 40.0082 76.3243 40.2342L75.6008 40.1471C75.6487 39.9025 75.7596 39.6714 75.9247 39.4725C76.0958 39.2872 76.3215 39.1492 76.5758 39.0746C76.8939 38.9767 77.2284 38.9294 77.5645 38.9347C77.8729 38.9265 78.1806 38.9664 78.474 39.0528C78.6713 39.1141 78.8472 39.2214 78.9838 39.3637C79.1005 39.4946 79.1798 39.6494 79.2146 39.8145C79.2463 40.0204 79.259 40.2284 79.2525 40.4362V41.3222C79.2411 41.7154 79.256 42.1089 79.2973 42.5004C79.332 42.6651 79.396 42.8236 79.4868 42.9699H78.7185C78.6343 42.812 78.5841 42.6411 78.5704 42.4663ZM78.5084 40.9803C78.1178 41.1033 77.7135 41.1878 77.3027 41.2321C77.0828 41.2517 76.8665 41.2955 76.6584 41.3626C76.5393 41.4079 76.4383 41.4849 76.3691 41.5834C76.3006 41.6752 76.2645 41.7836 76.2657 41.8942C76.2637 41.9784 76.2824 42.062 76.3206 42.1389C76.3587 42.2158 76.4153 42.284 76.4862 42.3388C76.6745 42.4679 76.9083 42.5309 77.1442 42.516C77.4087 42.5203 77.6698 42.4624 77.9021 42.3481C78.1143 42.243 78.2852 42.0812 78.3913 41.8849C78.4822 41.6732 78.5221 41.4464 78.5084 41.2196V40.9803Z" fill="#90B5EE"/>
<path d="M82.0148 42.3541L82.1216 42.9448C81.9384 42.9823 81.7514 43.0021 81.5635 43.0038C81.3545 43.0141 81.146 42.9766 80.9572 42.895C80.8172 42.8268 80.7076 42.717 80.6472 42.5842C80.5683 42.3284 80.538 42.0625 80.5576 41.7976V39.5376H80.0133V39.0215H80.5576V38.0453L81.2914 37.6474V39.0215H82.032V39.5376H81.2914V41.838C81.2832 41.9612 81.2948 42.0847 81.3258 42.2049C81.3542 42.2573 81.3984 42.3015 81.4533 42.3323C81.5316 42.3697 81.6198 42.3869 81.7082 42.3821C81.811 42.3792 81.9135 42.3698 82.0148 42.3541Z" fill="#90B5EE"/>
<path d="M82.745 38.2911V37.5264H83.4822V38.2911H82.745ZM82.745 42.9543V39.0217H83.4822V42.9512L82.745 42.9543Z" fill="#90B5EE"/>
<path d="M84.3368 40.9862C84.3368 40.2587 84.5607 39.7178 85.0085 39.3696C85.3916 39.0742 85.8828 38.9179 86.3865 38.9313C86.6587 38.9244 86.9294 38.9692 87.1811 39.063C87.4327 39.1567 87.6597 39.2972 87.8472 39.4753C88.0459 39.6726 88.1989 39.9038 88.2971 40.1553C88.3953 40.4068 88.4368 40.6734 88.4191 40.9396C88.44 41.3511 88.3527 41.7612 88.1642 42.1364C88.0025 42.4234 87.7461 42.6581 87.4304 42.8079C87.1145 42.9671 86.7587 43.0505 86.3969 43.0504C86.1225 43.0602 85.8489 43.0179 85.5937 42.9264C85.3386 42.8348 85.1075 42.696 84.9155 42.5188C84.712 42.3103 84.5561 42.0676 84.4568 41.8046C84.3575 41.5416 84.3167 41.2635 84.3368 40.9862ZM85.0947 40.9862C85.0618 41.3907 85.1914 41.7924 85.4598 42.1178C85.574 42.2364 85.715 42.3315 85.8734 42.3966C86.0318 42.4618 86.2038 42.4955 86.3779 42.4955C86.552 42.4955 86.724 42.4618 86.8824 42.3966C87.0408 42.3315 87.1819 42.2364 87.296 42.1178C87.5662 41.7861 87.6957 41.378 87.6612 40.9675C87.6934 40.5707 87.5608 40.1773 87.2891 39.8639C87.1787 39.7435 87.0395 39.6471 86.8821 39.582C86.7246 39.5168 86.5528 39.4846 86.3797 39.4878C86.2053 39.4846 86.0323 39.5165 85.8733 39.581C85.7142 39.6455 85.573 39.7411 85.4598 39.8608C85.1907 40.1836 85.0597 40.5832 85.0912 40.9862H85.0947Z" fill="#90B5EE"/>
<path d="M89.287 42.9511V39.0216H89.9519V39.5781C90.1001 39.372 90.3049 39.2041 90.5464 39.0907C90.7879 38.9774 91.0579 38.9225 91.3299 38.9314C91.5774 38.9287 91.8228 38.9732 92.0499 39.062C92.2466 39.1287 92.4185 39.244 92.546 39.3946C92.6604 39.5419 92.739 39.7093 92.7768 39.8858C92.8111 40.1009 92.825 40.3183 92.8182 40.5356V42.9511H92.0809V40.5604C92.0931 40.35 92.0627 40.1393 91.9914 39.9387C91.9318 39.8063 91.8235 39.6966 91.6848 39.6278C91.5299 39.5442 91.3518 39.5022 91.1714 39.5066C90.8715 39.5019 90.5804 39.5983 90.355 39.777C90.1276 39.9573 90.0105 40.2993 90.0105 40.8029V42.948L89.287 42.9511Z" fill="#90B5EE"/>
<path d="M99.1435 41.5118L99.8704 41.5957C99.8169 42.0052 99.6002 42.3831 99.2606 42.6589C98.9262 42.9164 98.4977 43.0527 98.0583 43.0413C97.7907 43.0507 97.524 43.0087 97.2758 42.9182C97.0275 42.8276 96.8034 42.6905 96.6183 42.5159C96.2303 42.0922 96.0367 41.5504 96.0774 41.002C96.0672 40.6192 96.147 40.2388 96.3117 39.8859C96.4522 39.583 96.7024 39.3321 97.0213 39.174C97.3364 39.0129 97.6928 38.9293 98.0548 38.9315C98.47 38.9109 98.8803 39.0208 99.2158 39.2424C99.5305 39.4775 99.7368 39.81 99.7946 40.175L99.078 40.2745C99.0301 40.0463 98.902 39.8382 98.7128 39.6807C98.5376 39.5454 98.313 39.4734 98.0824 39.4787C97.9108 39.474 97.7403 39.5043 97.5834 39.5673C97.4266 39.6303 97.2875 39.7243 97.1764 39.8424C96.9151 40.1737 96.793 40.5782 96.8319 40.9833C96.7958 41.3911 96.9176 41.7976 97.1764 42.1336C97.2822 42.2498 97.416 42.3427 97.5677 42.4052C97.7193 42.4677 97.8848 42.4981 98.0514 42.4942C98.3194 42.5015 98.58 42.4145 98.7783 42.2517C98.9931 42.0517 99.1225 41.7896 99.1435 41.5118Z" fill="#90B5EE"/>
<path d="M100.228 40.9866C100.228 40.2591 100.452 39.7182 100.9 39.37C101.283 39.074 101.774 38.9177 102.278 38.9317C102.551 38.9227 102.822 38.9657 103.075 39.0578C103.328 39.1499 103.557 39.2891 103.746 39.4664C103.944 39.6641 104.096 39.8953 104.195 40.1467C104.293 40.3981 104.335 40.6645 104.318 40.9306C104.339 41.3421 104.251 41.7523 104.063 42.1275C103.898 42.4126 103.643 42.6465 103.329 42.799C103.008 42.9607 102.646 43.0443 102.278 43.0415C102.004 43.0514 101.73 43.0093 101.475 42.9177C101.22 42.8261 100.989 42.6872 100.797 42.5099C100.392 42.0896 100.188 41.5421 100.228 40.9866ZM100.986 40.9866C100.952 41.3912 101.082 41.7934 101.352 42.1182C101.465 42.2383 101.606 42.3343 101.765 42.3994C101.924 42.4644 102.097 42.4968 102.271 42.4943C102.445 42.4969 102.618 42.4641 102.776 42.3984C102.934 42.3328 103.073 42.2359 103.184 42.115C103.456 41.7841 103.586 41.3754 103.549 40.9648C103.583 40.5684 103.452 40.1749 103.181 39.8612C103.07 39.7413 102.931 39.6452 102.773 39.5802C102.616 39.5151 102.444 39.4826 102.271 39.485C102.097 39.4819 101.924 39.5137 101.765 39.5783C101.606 39.6428 101.465 39.7383 101.352 39.8581C101.081 40.1813 100.951 40.5828 100.986 40.9866Z" fill="#90B5EE"/>
<path d="M105.178 42.951V39.0215H105.84V39.5717C105.981 39.3724 106.177 39.209 106.408 39.097C106.638 38.9849 106.897 38.9279 107.159 38.9313C107.437 38.9218 107.712 38.9844 107.952 39.1116C108.158 39.2314 108.312 39.4113 108.389 39.6215C108.528 39.4108 108.725 39.2364 108.961 39.1153C109.198 38.9943 109.465 38.9309 109.736 38.9313C109.917 38.9185 110.099 38.9394 110.27 38.9929C110.441 39.0464 110.599 39.1313 110.732 39.2422C110.987 39.5199 111.111 39.8774 111.076 40.237V42.9354H110.343V40.4484C110.353 40.2544 110.329 40.0602 110.27 39.8733C110.222 39.7546 110.131 39.6539 110.012 39.5873C109.878 39.5147 109.724 39.478 109.567 39.4816C109.426 39.4783 109.286 39.5012 109.155 39.5488C109.024 39.5964 108.905 39.6677 108.806 39.7582C108.693 39.88 108.608 40.0206 108.555 40.1721C108.503 40.3236 108.484 40.483 108.499 40.6411V42.923H107.762V40.408C107.781 40.1738 107.718 39.9401 107.583 39.7396C107.512 39.6622 107.42 39.6017 107.317 39.5633C107.214 39.5248 107.102 39.5096 106.991 39.5189C106.786 39.5188 106.586 39.5693 106.412 39.665C106.236 39.7685 106.103 39.9215 106.033 40.1002C105.941 40.3655 105.9 40.6431 105.912 40.9209V42.9603L105.178 42.951Z" fill="#90B5EE"/>
<path d="M112.176 44.4495V39.0216H112.865V39.5314C113.003 39.348 113.186 39.195 113.399 39.0838C113.622 38.9768 113.873 38.9243 114.126 38.9314C114.475 38.9261 114.819 39.016 115.111 39.1895C115.401 39.3713 115.625 39.6266 115.755 39.9231C115.903 40.2508 115.976 40.6016 115.972 40.9552C115.98 41.3294 115.897 41.7005 115.731 42.0433C115.592 42.3371 115.362 42.5879 115.067 42.7652C114.773 42.9424 114.428 43.0384 114.074 43.0412C113.842 43.0447 113.614 42.9955 113.409 42.8982C113.224 42.8115 113.061 42.6908 112.93 42.5438V44.4495H112.176ZM112.844 40.9988C112.81 41.3977 112.932 41.7948 113.189 42.121C113.285 42.2347 113.41 42.3267 113.553 42.3898C113.696 42.4529 113.853 42.4854 114.012 42.4847C114.175 42.4842 114.336 42.45 114.482 42.3848C114.628 42.3196 114.756 42.2251 114.856 42.1086C115.117 41.7678 115.239 41.3557 115.2 40.9428C115.234 40.5429 115.112 40.1449 114.856 39.8174C114.761 39.7028 114.637 39.6096 114.496 39.5449C114.354 39.4802 114.198 39.4458 114.039 39.4444C113.875 39.4488 113.714 39.4873 113.569 39.5568C113.424 39.6264 113.298 39.7251 113.202 39.8454C112.936 40.1832 112.809 40.5946 112.844 41.0081V40.9988Z" fill="#90B5EE"/>
<path d="M116.837 42.9512V37.5264H117.574V42.9512H116.837Z" fill="#90B5EE"/>
<path d="M121.704 41.6857L122.469 41.7697C122.369 42.1403 122.132 42.4692 121.798 42.7023C121.378 42.9481 120.88 43.0619 120.382 43.0259C119.884 42.9899 119.412 42.8062 119.042 42.5033C118.647 42.092 118.446 41.5574 118.483 41.0142C118.441 40.4495 118.643 39.892 119.048 39.4599C119.236 39.2793 119.465 39.1371 119.718 39.0428C119.972 38.9484 120.245 38.9041 120.519 38.9127C120.789 38.9071 121.057 38.9545 121.305 39.0517C121.552 39.1488 121.773 39.2934 121.953 39.4754C122.346 39.8957 122.545 40.437 122.507 40.9863C122.507 41.0236 122.507 41.0826 122.507 41.1635H119.262C119.259 41.5271 119.402 41.8794 119.665 42.1552C119.782 42.2674 119.923 42.3561 120.081 42.4156C120.238 42.475 120.407 42.5039 120.578 42.5002C120.825 42.505 121.066 42.4373 121.267 42.3075C121.477 42.1435 121.629 41.9272 121.704 41.6857ZM121.725 40.6101C121.719 40.3414 121.622 40.0809 121.446 39.864C121.337 39.7405 121.198 39.6415 121.04 39.5746C120.881 39.5078 120.708 39.4749 120.533 39.4785C120.374 39.4758 120.217 39.502 120.069 39.5554C119.922 39.6088 119.788 39.6883 119.675 39.7894C119.435 40.0091 119.294 40.3016 119.279 40.6101H121.725Z" fill="#90B5EE"/>
<path d="M122.907 42.9511L124.499 40.9086L123.024 39.0216H123.947L124.616 39.9542C124.743 40.1314 124.843 40.2651 124.922 40.3957C125.039 40.234 125.153 40.0848 125.267 39.9604L126.001 39.0278H126.883L125.377 40.8931L127 42.9728H126.087L125.195 41.7511L124.957 41.4215L123.813 42.9759L122.907 42.9511Z" fill="#90B5EE"/>
<path d="M45.1537 35.1714V11.8867L22.5752 23.4296V46.8604L45.1537 35.1714Z" fill="#F0CC0D"/>
<path d="M22.5751 0L0 11.8848L22.5751 23.4277L45.1536 11.8848L22.5751 0Z" fill="#FFEB3C"/>
<path d="M0 35.3673V11.8867L22.5751 23.5446V47.1993L0 35.3673Z" fill="#FFE600"/>
<path d="M62.4825 32.642H58.5449V8.88477H62.4825V32.642ZM83.5211 12.0277H79.1839V32.642H75.2635V12.0277H70.9228V8.88477H83.5211V12.0277Z" fill="#4987E3"/>
<path d="M102.829 32.642H91.9121V8.88477H102.729V12.0277H95.8394V18.9634H101.761V22.0442H95.8498V29.5053H102.829V32.642ZM124.877 30.4659C124.877 31.9166 124.073 32.642 122.466 32.642H114.249C112.692 32.642 111.913 31.9166 111.91 30.4659V11.0733C111.91 9.62258 112.69 8.8972 114.249 8.8972H122.459C124.067 8.8972 124.87 9.62258 124.87 11.0733V16.6287H120.943V11.9376H115.848V29.5923H120.943V24.5965H124.864L124.877 30.4659Z" fill="#094FB7"/>
</svg>
